<?xml version="1.0" encoding="UTF-8"?>
<svg version="1.1" xmlns="http://www.w3.org/2000/svg" width="1280" height="901">
<path d="M0 0 C0.76623688 0.0012085 1.53247375 0.00241699 2.32192993 0.00366211 C46.38298643 0.19140197 85.40541823 18.39959208 116.75 48.875 C130 62.46915584 130 62.46915584 130 66.375 C229.66 66.375 329.32 66.375 432 66.375 C432 303.975 432 541.575 432 786.375 C214.2 786.375 -3.6 786.375 -228 786.375 C-228.33 788.025 -228.66 789.675 -229 791.375 C-230.3046875 793.359375 -230.3046875 793.359375 -231.875 795.125 C-232.38804687 795.71796875 -232.90109375 796.3109375 -233.4296875 796.921875 C-236.82567791 800.06443329 -240.98455311 799.61690073 -245.33331547 799.56804964 C-249.4104092 799.27289606 -253.00045539 798.11699555 -256.84959698 796.80112076 C-286.54808102 787.39657131 -314.11706903 785.6515215 -345.12008633 785.89762849 C-351.28135504 785.93405606 -357.44225209 785.91206662 -363.60355425 785.89283857 C-376.09200073 785.85571011 -388.57978253 785.871532 -401.06816101 785.92193604 C-417.9541364 785.98991187 -434.83868661 785.981568 -451.72497559 785.96142578 C-492.25418565 785.95069088 -532.78336932 786.04406862 -573.3125 786.125 C-663.959375 786.2075 -754.60625 786.29 -848 786.375 C-848 548.775 -848 311.175 -848 66.375 C-490.5625 66.5 -490.5625 66.5 -377.53735352 66.61767578 C-344.21745596 66.6045338 -344.21745596 66.6045338 -310.89756775 66.57809448 C-295.02930714 66.56588454 -279.161423 66.58685628 -263.29321262 66.62376382 C-247.12031016 66.66056812 -230.94772755 66.6601327 -214.77482247 66.62363081 C-205.15304989 66.60301479 -195.53223414 66.6095676 -185.9105504 66.65685148 C-179.56078297 66.6853451 -173.21172891 66.67775637 -166.86200819 66.64051191 C-163.24276445 66.62032198 -159.62541085 66.61606516 -156.0062865 66.65578437 C-152.09974637 66.69827929 -148.19605834 66.66345867 -144.28946781 66.62109566 C-143.16435041 66.64576149 -142.039233 66.67042732 -140.88002113 66.6958406 C-136.08077602 66.58620631 -133.14518477 66.31595121 -129.36324804 63.2084894 C-127.07237606 60.68917629 -125.01917989 58.11457941 -123 55.375 C-93.19742298 19.56719119 -46.02079478 -0.13518409 0 0 Z " fill="#030728" transform="translate(848,-0.375)"/>
<path d="M0 0 C0.76623688 0.0012085 1.53247375 0.00241699 2.32192993 0.00366211 C46.38298643 0.19140197 85.40541823 18.39959208 116.75 48.875 C122.78818167 55.07998227 128.90504152 61.69109319 132.9296875 69.4140625 C134.38097706 72.07299447 136.05045472 74.57634518 137.6875 77.125 C159.64772326 112.48468152 166.075648 153.66201811 158 194.375 C154.24931271 209.88779958 148.58541513 224.35633688 141 238.375 C140.4225 239.44621094 139.845 240.51742187 139.25 241.62109375 C133.35933467 252.10702347 126.13478052 261.37736202 117.98828125 270.19921875 C116.39293179 271.94501374 114.90064268 273.70788102 113.4375 275.5625 C96.78722478 294.77435602 73.14825581 307.05771457 50 316.375 C48.95972656 316.808125 47.91945313 317.24125 46.84765625 317.6875 C31.0403369 323.92274461 14.39307537 325.5621346 -2.4362793 325.56030273 C-4.6653994 325.56247843 -6.89401455 325.58065879 -9.12304688 325.59960938 C-18.24939444 325.63579291 -26.98922374 324.98179888 -36 323.375 C-36.77851318 323.23956787 -37.55702637 323.10413574 -38.35913086 322.96459961 C-66.03869158 317.78532603 -92.17748808 303.81889114 -112.60546875 284.6171875 C-114.60371686 282.746071 -116.63509164 280.98506894 -118.75 279.25 C-135.40035805 264.9950944 -146.2769729 244.07431695 -155 224.375 C-155.39058594 223.51519531 -155.78117188 222.65539062 -156.18359375 221.76953125 C-172.20041581 184.56313914 -168.45277928 140.31170524 -154 103.375 C-142.87756744 77.21533132 -124.82684147 52.40806618 -102 35.375 C-100.95714844 34.57835937 -99.91429687 33.78171875 -98.83984375 32.9609375 C-81.20140682 19.73853968 -61.40893216 10.21836262 -40.125 4.5 C-39.41351807 4.30881592 -38.70203613 4.11763184 -37.96899414 3.9206543 C-25.41656098 0.77862382 -12.87456698 -0.03781848 0 0 Z " fill="#F3186B" transform="translate(848,-0.375)"/>
<path d="M0 0 C4.65797716 2.20641023 6.73169589 4.45759049 9 9 C10.12287587 12.71131608 10.99745495 16.47418456 11.875 20.25 C13.5407819 27.32259355 15.35122274 34.3171906 17.43359375 41.27734375 C19.70244135 48.86746284 21.7228905 56.49983945 23.65194702 64.1824646 C27.16995661 78.17451631 30.92751656 92.08816786 34.83099365 105.97711182 C37.73371886 116.31443883 40.47875122 126.67196085 43.02416992 137.10424805 C44.54339102 143.29465309 46.25068808 149.39612345 48.10668945 155.49291992 C50.22345613 162.54233554 51.96293095 169.68234576 53.68164062 176.83789062 C55.10294425 182.67924834 56.69755556 188.44453501 58.41796875 194.203125 C60.94303431 202.66499628 63.15702575 211.18776594 65.3125 219.75 C67.5652821 228.66081137 69.83850207 237.55912476 72.359375 246.3984375 C72.54666672 247.05863892 72.73395844 247.71884033 72.92692566 248.39904785 C73.8068941 251.49570249 74.69938507 254.58775493 75.61254883 257.67480469 C79.86375791 272.52955423 79.86375791 272.52955423 76.1875 279.375 C71.69230769 284.76923077 71.69230769 284.76923077 68 286 C61.04179413 286.58656534 54.86950666 285.53746369 48.19921875 283.65625 C47.29293228 283.41154465 46.38664581 283.16683929 45.45289612 282.91471863 C42.5276876 282.121761 39.60770122 281.3111836 36.6875 280.5 C34.65556737 279.9452926 32.62333806 279.39167093 30.59082031 278.83911133 C25.61380541 277.48302505 20.64079243 276.11292367 15.66912842 274.73736572 C11.93897206 273.70688348 8.20588458 272.68725199 4.47265625 271.66796875 C-4.56649289 269.19341565 -13.59492389 266.68208676 -22.61328125 264.1328125 C-32.94948512 261.21373452 -43.28494152 258.38386664 -53.71875 255.83422852 C-59.37609601 254.43962957 -64.97065817 252.88609883 -70.5625 251.25 C-81.67922549 248.00115852 -92.89744713 245.16235815 -104.12719727 242.33496094 C-111.28967708 240.52332953 -118.40602861 238.62234357 -125.484375 236.50390625 C-134.0972034 233.92632048 -142.7819521 231.69064923 -151.5 229.5 C-161.10061549 227.0875814 -170.65229219 224.59547455 -180.1262207 221.71923828 C-184.77994276 220.31539621 -189.45042309 219.15448655 -194.1875 218.0625 C-200.18290072 216.49515826 -203.35926334 215.03278304 -207 210 C-207.9576845 207.1269465 -208.19535459 205.12139007 -208.25 202.125 C-208.27578125 201.28195312 -208.3015625 200.43890625 -208.328125 199.5703125 C-207.48786337 192.98826303 -201.92060203 188.64177285 -197.44628906 184.1990509 C-196.66996754 183.42031496 -195.89364601 182.64157902 -195.09379959 181.83924502 C-192.48914557 179.22895159 -189.87739922 176.62587283 -187.265625 174.02270508 C-185.3977287 172.15373597 -183.53022919 170.28437804 -181.66320801 168.41453552 C-177.11676568 163.86305517 -172.56500632 159.31692824 -168.0114193 154.77259711 C-162.70995542 149.48152212 -157.41372751 144.18521902 -152.11769915 138.88870438 C-142.66981612 129.44032087 -133.21711216 119.99677522 -123.76171875 110.5559082 C-114.58360942 101.391892 -105.40901542 92.22437537 -96.23828125 83.05297852 C-95.67323647 82.48789378 -95.10819169 81.92280904 -94.52602434 81.34060053 C-93.96196241 80.77649824 -93.39790048 80.21239595 -92.81674576 79.63119966 C-82.37883306 69.19259742 -71.93763512 58.75728676 -61.49490094 48.32350806 C-57.8000868 44.63171196 -54.1062514 40.93893827 -50.41271973 37.24585915 C-45.91376001 32.74758104 -41.41291768 28.25119624 -36.90970421 23.75717644 C-34.61141398 21.46350784 -32.31418796 19.16879149 -30.01856995 16.87244797 C-27.5325876 14.38597716 -25.04356753 11.90258856 -22.55371094 9.41999817 C-21.460968 8.32493233 -21.460968 8.32493233 -20.34614944 7.20774394 C-19.34719713 6.2136283 -19.34719713 6.2136283 -18.32806396 5.19942951 C-17.75365444 4.62572441 -17.17924492 4.05201932 -16.58742905 3.46092921 C-11.58331009 -1.14441904 -6.47121619 -0.69334459 0 0 Z " fill="#0070F7" transform="translate(542,513)"/>
</svg>
